<mxfile host="app.diagrams.net" modified="2022-07-19T00:40:33.882Z" agent="5.0 (Macintosh; Intel Mac OS X 10_15_7) AppleWebKit/537.36 (KHTML, like Gecko) Chrome/103.0.0.0 Safari/537.36" etag="AZBy4m46Hc-dxygZ0TPG" version="20.1.1" type="github">
  <diagram name="Page-1" id="0783ab3e-0a74-02c8-0abd-f7b4e66b4bec">
    <mxGraphModel dx="996" dy="680" grid="1" gridSize="10" guides="1" tooltips="1" connect="1" arrows="1" fold="1" page="1" pageScale="1" pageWidth="850" pageHeight="1100" background="none" math="0" shadow="0">
      <root>
        <mxCell id="0" />
        <mxCell id="1" parent="0" />
        <mxCell id="1c1d494c118603dd-1" value="Diagramme d&#39;acitivitÃ©" style="swimlane;html=1;childLayout=stackLayout;startSize=20;rounded=0;shadow=0;comic=0;labelBackgroundColor=none;strokeWidth=1;fontFamily=Verdana;fontSize=12;align=center;" parent="1" vertex="1">
          <mxGeometry x="40" y="20" width="750" height="660" as="geometry" />
        </mxCell>
        <mxCell id="aLRL2a5Y_UuWTGW3Ucmm-10" value="" style="endArrow=classic;html=1;rounded=0;exitX=0.471;exitY=1.004;exitDx=0;exitDy=0;exitPerimeter=0;" edge="1" parent="1c1d494c118603dd-1" source="aLRL2a5Y_UuWTGW3Ucmm-8">
          <mxGeometry width="50" height="50" relative="1" as="geometry">
            <mxPoint x="538.86" y="140.03999999999996" as="sourcePoint" />
            <mxPoint x="497" y="120" as="targetPoint" />
          </mxGeometry>
        </mxCell>
        <mxCell id="aLRL2a5Y_UuWTGW3Ucmm-12" value="" style="endArrow=classic;html=1;rounded=0;exitX=0.124;exitY=0.568;exitDx=0;exitDy=0;exitPerimeter=0;" edge="1" parent="1c1d494c118603dd-1">
          <mxGeometry width="50" height="50" relative="1" as="geometry">
            <mxPoint x="487" y="129.77999999999997" as="sourcePoint" />
            <mxPoint x="440" y="130" as="targetPoint" />
          </mxGeometry>
        </mxCell>
        <mxCell id="aLRL2a5Y_UuWTGW3Ucmm-26" value="" style="endArrow=classic;html=1;rounded=0;exitX=0.5;exitY=0;exitDx=0;exitDy=0;edgeStyle=orthogonalEdgeStyle;" edge="1" parent="1c1d494c118603dd-1" source="aLRL2a5Y_UuWTGW3Ucmm-23">
          <mxGeometry width="50" height="50" relative="1" as="geometry">
            <mxPoint x="90" y="110" as="sourcePoint" />
            <mxPoint x="380" y="100" as="targetPoint" />
            <Array as="points">
              <mxPoint x="93" y="70" />
              <mxPoint x="380" y="70" />
            </Array>
          </mxGeometry>
        </mxCell>
        <mxCell id="aLRL2a5Y_UuWTGW3Ucmm-28" value="" style="endArrow=classic;html=1;rounded=0;exitX=0.5;exitY=1;exitDx=0;exitDy=0;" edge="1" parent="1c1d494c118603dd-1" source="aLRL2a5Y_UuWTGW3Ucmm-23">
          <mxGeometry width="50" height="50" relative="1" as="geometry">
            <mxPoint x="90" y="140" as="sourcePoint" />
            <mxPoint x="93" y="210" as="targetPoint" />
          </mxGeometry>
        </mxCell>
        <mxCell id="aLRL2a5Y_UuWTGW3Ucmm-32" value="" style="endArrow=classic;html=1;rounded=0;exitX=0.471;exitY=1.004;exitDx=0;exitDy=0;exitPerimeter=0;" edge="1" parent="1c1d494c118603dd-1">
          <mxGeometry width="50" height="50" relative="1" as="geometry">
            <mxPoint x="610.0000000000002" y="160" as="sourcePoint" />
            <mxPoint x="610" y="210" as="targetPoint" />
          </mxGeometry>
        </mxCell>
        <mxCell id="aLRL2a5Y_UuWTGW3Ucmm-35" value="" style="endArrow=classic;html=1;rounded=0;exitX=0.471;exitY=1.004;exitDx=0;exitDy=0;exitPerimeter=0;" edge="1" parent="1c1d494c118603dd-1">
          <mxGeometry width="50" height="50" relative="1" as="geometry">
            <mxPoint x="610.0000000000002" y="270" as="sourcePoint" />
            <mxPoint x="610" y="320" as="targetPoint" />
          </mxGeometry>
        </mxCell>
        <mxCell id="aLRL2a5Y_UuWTGW3Ucmm-46" value="" style="endArrow=classic;html=1;rounded=0;exitX=0.124;exitY=0.568;exitDx=0;exitDy=0;exitPerimeter=0;edgeStyle=orthogonalEdgeStyle;" edge="1" parent="1c1d494c118603dd-1">
          <mxGeometry width="50" height="50" relative="1" as="geometry">
            <mxPoint x="321" y="240" as="sourcePoint" />
            <mxPoint x="344" y="310" as="targetPoint" />
          </mxGeometry>
        </mxCell>
        <mxCell id="aLRL2a5Y_UuWTGW3Ucmm-55" value="" style="endArrow=classic;html=1;rounded=0;exitX=0.5;exitY=1;exitDx=0;exitDy=0;" edge="1" parent="1c1d494c118603dd-1">
          <mxGeometry width="50" height="50" relative="1" as="geometry">
            <mxPoint x="80" y="400" as="sourcePoint" />
            <mxPoint x="80" y="440" as="targetPoint" />
          </mxGeometry>
        </mxCell>
        <mxCell id="aLRL2a5Y_UuWTGW3Ucmm-56" value="" style="endArrow=classic;html=1;rounded=0;exitX=0.5;exitY=1;exitDx=0;exitDy=0;" edge="1" parent="1c1d494c118603dd-1">
          <mxGeometry width="50" height="50" relative="1" as="geometry">
            <mxPoint x="220" y="400" as="sourcePoint" />
            <mxPoint x="220" y="440" as="targetPoint" />
          </mxGeometry>
        </mxCell>
        <mxCell id="aLRL2a5Y_UuWTGW3Ucmm-57" value="" style="endArrow=classic;html=1;rounded=0;exitX=0.5;exitY=1;exitDx=0;exitDy=0;" edge="1" parent="1c1d494c118603dd-1">
          <mxGeometry width="50" height="50" relative="1" as="geometry">
            <mxPoint x="360" y="400" as="sourcePoint" />
            <mxPoint x="360" y="440" as="targetPoint" />
          </mxGeometry>
        </mxCell>
        <mxCell id="aLRL2a5Y_UuWTGW3Ucmm-58" value="" style="endArrow=classic;html=1;rounded=0;exitX=0.5;exitY=1;exitDx=0;exitDy=0;" edge="1" parent="1c1d494c118603dd-1">
          <mxGeometry width="50" height="50" relative="1" as="geometry">
            <mxPoint x="500" y="400" as="sourcePoint" />
            <mxPoint x="500" y="440" as="targetPoint" />
          </mxGeometry>
        </mxCell>
        <mxCell id="aLRL2a5Y_UuWTGW3Ucmm-72" value="" style="endArrow=classic;html=1;rounded=0;exitX=0.5;exitY=1;exitDx=0;exitDy=0;" edge="1" parent="1c1d494c118603dd-1">
          <mxGeometry width="50" height="50" relative="1" as="geometry">
            <mxPoint x="80" y="500.0000000000001" as="sourcePoint" />
            <mxPoint x="80" y="540.0000000000001" as="targetPoint" />
          </mxGeometry>
        </mxCell>
        <mxCell id="aLRL2a5Y_UuWTGW3Ucmm-73" value="" style="endArrow=classic;html=1;rounded=0;exitX=0.5;exitY=1;exitDx=0;exitDy=0;" edge="1" parent="1c1d494c118603dd-1">
          <mxGeometry width="50" height="50" relative="1" as="geometry">
            <mxPoint x="220" y="500" as="sourcePoint" />
            <mxPoint x="220" y="540" as="targetPoint" />
          </mxGeometry>
        </mxCell>
        <mxCell id="aLRL2a5Y_UuWTGW3Ucmm-74" value="" style="endArrow=classic;html=1;rounded=0;exitX=0.5;exitY=1;exitDx=0;exitDy=0;" edge="1" parent="1c1d494c118603dd-1">
          <mxGeometry width="50" height="50" relative="1" as="geometry">
            <mxPoint x="360.0000000000001" y="500" as="sourcePoint" />
            <mxPoint x="360.0000000000001" y="540" as="targetPoint" />
          </mxGeometry>
        </mxCell>
        <mxCell id="aLRL2a5Y_UuWTGW3Ucmm-75" value="" style="endArrow=classic;html=1;rounded=0;exitX=0.5;exitY=1;exitDx=0;exitDy=0;" edge="1" parent="1c1d494c118603dd-1">
          <mxGeometry width="50" height="50" relative="1" as="geometry">
            <mxPoint x="500.0000000000001" y="500" as="sourcePoint" />
            <mxPoint x="500.0000000000001" y="540" as="targetPoint" />
          </mxGeometry>
        </mxCell>
        <mxCell id="aLRL2a5Y_UuWTGW3Ucmm-93" value="" style="endArrow=classic;html=1;rounded=0;exitX=0.5;exitY=1;exitDx=0;exitDy=0;" edge="1" parent="1c1d494c118603dd-1">
          <mxGeometry width="50" height="50" relative="1" as="geometry">
            <mxPoint x="640" y="500.0000000000001" as="sourcePoint" />
            <mxPoint x="640" y="540.0000000000001" as="targetPoint" />
          </mxGeometry>
        </mxCell>
        <mxCell id="aLRL2a5Y_UuWTGW3Ucmm-94" value="" style="endArrow=none;html=1;rounded=0;fontSize=7;strokeWidth=5;" edge="1" parent="1c1d494c118603dd-1">
          <mxGeometry width="50" height="50" relative="1" as="geometry">
            <mxPoint x="80" y="540" as="sourcePoint" />
            <mxPoint x="640" y="540" as="targetPoint" />
          </mxGeometry>
        </mxCell>
        <mxCell id="aLRL2a5Y_UuWTGW3Ucmm-95" value="" style="endArrow=classic;html=1;rounded=0;exitX=0.5;exitY=1;exitDx=0;exitDy=0;edgeStyle=orthogonalEdgeStyle;" edge="1" parent="1c1d494c118603dd-1">
          <mxGeometry width="50" height="50" relative="1" as="geometry">
            <mxPoint x="252.0000000000001" y="540" as="sourcePoint" />
            <mxPoint x="340" y="600" as="targetPoint" />
            <Array as="points">
              <mxPoint x="252" y="600" />
              <mxPoint x="252" y="600" />
            </Array>
          </mxGeometry>
        </mxCell>
        <mxCell id="aLRL2a5Y_UuWTGW3Ucmm-105" value="" style="endArrow=classic;html=1;rounded=0;exitX=0.5;exitY=1;exitDx=0;exitDy=0;" edge="1" parent="1c1d494c118603dd-1">
          <mxGeometry width="50" height="50" relative="1" as="geometry">
            <mxPoint x="640" y="400.0000000000001" as="sourcePoint" />
            <mxPoint x="640" y="440.0000000000001" as="targetPoint" />
          </mxGeometry>
        </mxCell>
        <mxCell id="aLRL2a5Y_UuWTGW3Ucmm-4" value="" style="ellipse;html=1;shape=startState;fillColor=#000000;strokeColor=#ff0000;" vertex="1" parent="1">
          <mxGeometry x="674" y="62" width="30" height="30" as="geometry" />
        </mxCell>
        <mxCell id="aLRL2a5Y_UuWTGW3Ucmm-6" value="" style="endArrow=classic;html=1;rounded=0;exitX=0.124;exitY=0.568;exitDx=0;exitDy=0;exitPerimeter=0;" edge="1" parent="1" source="aLRL2a5Y_UuWTGW3Ucmm-4">
          <mxGeometry width="50" height="50" relative="1" as="geometry">
            <mxPoint x="590" y="169" as="sourcePoint" />
            <mxPoint x="600" y="79" as="targetPoint" />
          </mxGeometry>
        </mxCell>
        <mxCell id="aLRL2a5Y_UuWTGW3Ucmm-8" value="" style="rounded=1;whiteSpace=wrap;html=1;" vertex="1" parent="1">
          <mxGeometry x="480" y="54" width="120" height="60" as="geometry" />
        </mxCell>
        <mxCell id="aLRL2a5Y_UuWTGW3Ucmm-9" value="Connexion/Inscription" style="text;html=1;resizable=0;autosize=1;align=center;verticalAlign=middle;points=[];fillColor=none;strokeColor=none;rounded=0;fontSize=9;" vertex="1" parent="1">
          <mxGeometry x="485" y="74" width="110" height="20" as="geometry" />
        </mxCell>
        <mxCell id="aLRL2a5Y_UuWTGW3Ucmm-11" value="" style="rhombus;whiteSpace=wrap;html=1;fontSize=9;" vertex="1" parent="1">
          <mxGeometry x="527" y="140" width="20" height="20" as="geometry" />
        </mxCell>
        <mxCell id="aLRL2a5Y_UuWTGW3Ucmm-13" value="" style="endArrow=classic;html=1;rounded=0;exitX=1;exitY=0.5;exitDx=0;exitDy=0;" edge="1" parent="1" source="aLRL2a5Y_UuWTGW3Ucmm-11">
          <mxGeometry width="50" height="50" relative="1" as="geometry">
            <mxPoint x="537" y="159.77999999999997" as="sourcePoint" />
            <mxPoint x="590" y="150" as="targetPoint" />
          </mxGeometry>
        </mxCell>
        <mxCell id="aLRL2a5Y_UuWTGW3Ucmm-14" value="Connexion" style="text;html=1;resizable=0;autosize=1;align=center;verticalAlign=middle;points=[];fillColor=none;strokeColor=none;rounded=0;fontSize=7;" vertex="1" parent="1">
          <mxGeometry x="479" y="132" width="60" height="20" as="geometry" />
        </mxCell>
        <mxCell id="aLRL2a5Y_UuWTGW3Ucmm-15" value="Inscription" style="text;html=1;resizable=0;autosize=1;align=center;verticalAlign=middle;points=[];fillColor=none;strokeColor=none;rounded=0;fontSize=7;" vertex="1" parent="1">
          <mxGeometry x="535" y="132" width="60" height="20" as="geometry" />
        </mxCell>
        <mxCell id="aLRL2a5Y_UuWTGW3Ucmm-16" value="" style="rounded=1;whiteSpace=wrap;html=1;fontSize=4;" vertex="1" parent="1">
          <mxGeometry x="359" y="121" width="120" height="60" as="geometry" />
        </mxCell>
        <mxCell id="aLRL2a5Y_UuWTGW3Ucmm-17" value="ComplÃ©ter le formulaire" style="text;html=1;resizable=0;autosize=1;align=center;verticalAlign=middle;points=[];fillColor=none;strokeColor=none;rounded=0;fontSize=9;" vertex="1" parent="1">
          <mxGeometry x="359" y="141" width="120" height="20" as="geometry" />
        </mxCell>
        <mxCell id="aLRL2a5Y_UuWTGW3Ucmm-19" value="" style="endArrow=classic;html=1;rounded=0;exitX=0.124;exitY=0.568;exitDx=0;exitDy=0;exitPerimeter=0;" edge="1" parent="1">
          <mxGeometry width="50" height="50" relative="1" as="geometry">
            <mxPoint x="358.9999999999999" y="149.78000000000003" as="sourcePoint" />
            <mxPoint x="312" y="150" as="targetPoint" />
          </mxGeometry>
        </mxCell>
        <mxCell id="aLRL2a5Y_UuWTGW3Ucmm-20" value="" style="rounded=1;whiteSpace=wrap;html=1;fontSize=4;" vertex="1" parent="1">
          <mxGeometry x="191" y="121" width="120" height="60" as="geometry" />
        </mxCell>
        <mxCell id="aLRL2a5Y_UuWTGW3Ucmm-21" value="Valider le formulaire" style="text;html=1;resizable=0;autosize=1;align=center;verticalAlign=middle;points=[];fillColor=none;strokeColor=none;rounded=0;fontSize=9;" vertex="1" parent="1">
          <mxGeometry x="201" y="141" width="100" height="20" as="geometry" />
        </mxCell>
        <mxCell id="aLRL2a5Y_UuWTGW3Ucmm-22" value="" style="endArrow=classic;html=1;rounded=0;exitX=0.124;exitY=0.568;exitDx=0;exitDy=0;exitPerimeter=0;" edge="1" parent="1">
          <mxGeometry width="50" height="50" relative="1" as="geometry">
            <mxPoint x="190.9999999999999" y="148.77999999999997" as="sourcePoint" />
            <mxPoint x="144" y="149" as="targetPoint" />
          </mxGeometry>
        </mxCell>
        <mxCell id="aLRL2a5Y_UuWTGW3Ucmm-23" value="" style="rhombus;whiteSpace=wrap;html=1;fontSize=9;" vertex="1" parent="1">
          <mxGeometry x="123" y="139" width="20" height="20" as="geometry" />
        </mxCell>
        <mxCell id="aLRL2a5Y_UuWTGW3Ucmm-24" value="VÃ©rification" style="text;html=1;resizable=0;autosize=1;align=center;verticalAlign=middle;points=[];fillColor=none;strokeColor=none;rounded=0;fontSize=7;" vertex="1" parent="1">
          <mxGeometry x="140" y="132" width="60" height="20" as="geometry" />
        </mxCell>
        <mxCell id="aLRL2a5Y_UuWTGW3Ucmm-27" value="DonnÃ©es invalides" style="text;html=1;resizable=0;autosize=1;align=center;verticalAlign=middle;points=[];fillColor=none;strokeColor=none;rounded=0;fontSize=7;" vertex="1" parent="1">
          <mxGeometry x="241" y="73" width="80" height="20" as="geometry" />
        </mxCell>
        <mxCell id="aLRL2a5Y_UuWTGW3Ucmm-29" value="DonnÃ©es validÃ©es" style="text;html=1;resizable=0;autosize=1;align=center;verticalAlign=middle;points=[];fillColor=none;strokeColor=none;rounded=0;fontSize=7;" vertex="1" parent="1">
          <mxGeometry x="60" y="179" width="80" height="20" as="geometry" />
        </mxCell>
        <mxCell id="aLRL2a5Y_UuWTGW3Ucmm-30" value="" style="rounded=1;whiteSpace=wrap;html=1;fontSize=4;" vertex="1" parent="1">
          <mxGeometry x="591" y="121" width="120" height="60" as="geometry" />
        </mxCell>
        <mxCell id="aLRL2a5Y_UuWTGW3Ucmm-31" value="ComplÃ©ter le formulaire" style="text;html=1;resizable=0;autosize=1;align=center;verticalAlign=middle;points=[];fillColor=none;strokeColor=none;rounded=0;fontSize=9;" vertex="1" parent="1">
          <mxGeometry x="590" y="141" width="120" height="20" as="geometry" />
        </mxCell>
        <mxCell id="aLRL2a5Y_UuWTGW3Ucmm-33" value="" style="rounded=1;whiteSpace=wrap;html=1;fontSize=4;" vertex="1" parent="1">
          <mxGeometry x="590" y="231" width="120" height="60" as="geometry" />
        </mxCell>
        <mxCell id="aLRL2a5Y_UuWTGW3Ucmm-34" value="Valider le formulaire" style="text;html=1;resizable=0;autosize=1;align=center;verticalAlign=middle;points=[];fillColor=none;strokeColor=none;rounded=0;fontSize=9;" vertex="1" parent="1">
          <mxGeometry x="599" y="251" width="100" height="20" as="geometry" />
        </mxCell>
        <mxCell id="aLRL2a5Y_UuWTGW3Ucmm-36" value="" style="rhombus;whiteSpace=wrap;html=1;fontSize=9;" vertex="1" parent="1">
          <mxGeometry x="640" y="341" width="20" height="20" as="geometry" />
        </mxCell>
        <mxCell id="aLRL2a5Y_UuWTGW3Ucmm-37" value="" style="endArrow=classic;html=1;rounded=0;exitX=1;exitY=0.5;exitDx=0;exitDy=0;edgeStyle=orthogonalEdgeStyle;entryX=1;entryY=0.5;entryDx=0;entryDy=0;" edge="1" parent="1" target="aLRL2a5Y_UuWTGW3Ucmm-30">
          <mxGeometry width="50" height="50" relative="1" as="geometry">
            <mxPoint x="660" y="351" as="sourcePoint" />
            <mxPoint x="760" y="150" as="targetPoint" />
            <Array as="points">
              <mxPoint x="760" y="351" />
              <mxPoint x="760" y="151" />
            </Array>
          </mxGeometry>
        </mxCell>
        <mxCell id="aLRL2a5Y_UuWTGW3Ucmm-38" value="&lt;font style=&quot;font-size: 7px;&quot;&gt;DonnÃ©es invalides&lt;/font&gt;" style="text;html=1;resizable=0;autosize=1;align=center;verticalAlign=middle;points=[];fillColor=none;strokeColor=none;rounded=0;fontSize=7;" vertex="1" parent="1">
          <mxGeometry x="666" y="332" width="80" height="20" as="geometry" />
        </mxCell>
        <mxCell id="aLRL2a5Y_UuWTGW3Ucmm-39" value="" style="endArrow=classic;html=1;rounded=0;exitX=0.124;exitY=0.568;exitDx=0;exitDy=0;exitPerimeter=0;edgeStyle=orthogonalEdgeStyle;entryX=0.5;entryY=1;entryDx=0;entryDy=0;" edge="1" parent="1">
          <mxGeometry width="50" height="50" relative="1" as="geometry">
            <mxPoint x="661" y="351" as="sourcePoint" />
            <mxPoint x="440" y="181" as="targetPoint" />
            <Array as="points">
              <mxPoint x="440" y="351" />
            </Array>
          </mxGeometry>
        </mxCell>
        <mxCell id="aLRL2a5Y_UuWTGW3Ucmm-40" value="&lt;font style=&quot;font-size: 7px;&quot;&gt;DonnÃ©es validÃ©es&lt;/font&gt;" style="text;html=1;resizable=0;autosize=1;align=center;verticalAlign=middle;points=[];fillColor=none;strokeColor=none;rounded=0;fontSize=7;" vertex="1" parent="1">
          <mxGeometry x="488" y="332" width="80" height="20" as="geometry" />
        </mxCell>
        <mxCell id="aLRL2a5Y_UuWTGW3Ucmm-41" value="" style="rounded=1;whiteSpace=wrap;html=1;fontSize=4;" vertex="1" parent="1">
          <mxGeometry x="73" y="229" width="120" height="60" as="geometry" />
        </mxCell>
        <mxCell id="aLRL2a5Y_UuWTGW3Ucmm-42" value="Aller vers le &lt;br&gt;Tableau de bord" style="text;html=1;resizable=0;autosize=1;align=center;verticalAlign=middle;points=[];fillColor=none;strokeColor=none;rounded=0;fontSize=9;" vertex="1" parent="1">
          <mxGeometry x="88" y="239" width="90" height="40" as="geometry" />
        </mxCell>
        <mxCell id="aLRL2a5Y_UuWTGW3Ucmm-43" value="" style="endArrow=classic;html=1;rounded=0;exitX=0.124;exitY=0.568;exitDx=0;exitDy=0;exitPerimeter=0;" edge="1" parent="1">
          <mxGeometry width="50" height="50" relative="1" as="geometry">
            <mxPoint x="193" y="260" as="sourcePoint" />
            <mxPoint x="239.9999999999999" y="259.78000000000003" as="targetPoint" />
          </mxGeometry>
        </mxCell>
        <mxCell id="aLRL2a5Y_UuWTGW3Ucmm-44" value="" style="rounded=1;whiteSpace=wrap;html=1;fontSize=4;" vertex="1" parent="1">
          <mxGeometry x="241" y="229" width="120" height="60" as="geometry" />
        </mxCell>
        <mxCell id="aLRL2a5Y_UuWTGW3Ucmm-45" value="Aller dans Votre profil" style="text;html=1;resizable=0;autosize=1;align=center;verticalAlign=middle;points=[];fillColor=none;strokeColor=none;rounded=0;fontSize=9;" vertex="1" parent="1">
          <mxGeometry x="246" y="249" width="110" height="20" as="geometry" />
        </mxCell>
        <mxCell id="aLRL2a5Y_UuWTGW3Ucmm-47" value="" style="rounded=1;whiteSpace=wrap;html=1;fontSize=4;" vertex="1" parent="1">
          <mxGeometry x="293" y="331" width="120" height="60" as="geometry" />
        </mxCell>
        <mxCell id="aLRL2a5Y_UuWTGW3Ucmm-48" value="Modifier ses informations" style="text;html=1;resizable=0;autosize=1;align=center;verticalAlign=middle;points=[];fillColor=none;strokeColor=none;rounded=0;fontSize=9;" vertex="1" parent="1">
          <mxGeometry x="293" y="351" width="120" height="20" as="geometry" />
        </mxCell>
        <mxCell id="aLRL2a5Y_UuWTGW3Ucmm-49" value="" style="endArrow=classic;html=1;rounded=0;edgeStyle=orthogonalEdgeStyle;entryX=0.463;entryY=-0.009;entryDx=0;entryDy=0;entryPerimeter=0;" edge="1" parent="1" target="aLRL2a5Y_UuWTGW3Ucmm-50">
          <mxGeometry width="50" height="50" relative="1" as="geometry">
            <mxPoint x="268" y="289" as="sourcePoint" />
            <mxPoint x="258" y="330" as="targetPoint" />
            <Array as="points">
              <mxPoint x="268" y="289" />
              <mxPoint x="268" y="310" />
              <mxPoint x="210" y="310" />
              <mxPoint x="210" y="331" />
            </Array>
          </mxGeometry>
        </mxCell>
        <mxCell id="aLRL2a5Y_UuWTGW3Ucmm-50" value="" style="rounded=1;whiteSpace=wrap;html=1;fontSize=4;" vertex="1" parent="1">
          <mxGeometry x="155" y="330" width="120" height="60" as="geometry" />
        </mxCell>
        <mxCell id="aLRL2a5Y_UuWTGW3Ucmm-51" value="Supprimer son compte" style="text;html=1;resizable=0;autosize=1;align=center;verticalAlign=middle;points=[];fillColor=none;strokeColor=none;rounded=0;fontSize=9;" vertex="1" parent="1">
          <mxGeometry x="160" y="350" width="110" height="20" as="geometry" />
        </mxCell>
        <mxCell id="aLRL2a5Y_UuWTGW3Ucmm-52" value="" style="endArrow=classic;html=1;rounded=0;exitX=0.124;exitY=0.568;exitDx=0;exitDy=0;exitPerimeter=0;edgeStyle=orthogonalEdgeStyle;entryX=0;entryY=0.25;entryDx=0;entryDy=0;" edge="1" parent="1" target="aLRL2a5Y_UuWTGW3Ucmm-8">
          <mxGeometry width="50" height="50" relative="1" as="geometry">
            <mxPoint x="153.9999999999999" y="359.78" as="sourcePoint" />
            <mxPoint x="450" y="50" as="targetPoint" />
            <Array as="points">
              <mxPoint x="60" y="360" />
              <mxPoint x="60" y="69" />
            </Array>
          </mxGeometry>
        </mxCell>
        <mxCell id="aLRL2a5Y_UuWTGW3Ucmm-53" value="Confirmation" style="text;html=1;resizable=0;autosize=1;align=center;verticalAlign=middle;points=[];fillColor=none;strokeColor=none;rounded=0;fontSize=7;" vertex="1" parent="1">
          <mxGeometry x="62" y="340" width="60" height="20" as="geometry" />
        </mxCell>
        <mxCell id="aLRL2a5Y_UuWTGW3Ucmm-62" value="" style="rounded=1;whiteSpace=wrap;html=1;fontSize=4;" vertex="1" parent="1">
          <mxGeometry x="62" y="461" width="120" height="60" as="geometry" />
        </mxCell>
        <mxCell id="aLRL2a5Y_UuWTGW3Ucmm-63" value="GÃ©rer les InvitÃ©s" style="text;html=1;resizable=0;autosize=1;align=center;verticalAlign=middle;points=[];fillColor=none;strokeColor=none;rounded=0;fontSize=9;" vertex="1" parent="1">
          <mxGeometry x="77" y="481" width="90" height="20" as="geometry" />
        </mxCell>
        <mxCell id="aLRL2a5Y_UuWTGW3Ucmm-64" value="" style="rounded=1;whiteSpace=wrap;html=1;fontSize=4;" vertex="1" parent="1">
          <mxGeometry x="201" y="461" width="120" height="60" as="geometry" />
        </mxCell>
        <mxCell id="aLRL2a5Y_UuWTGW3Ucmm-65" value="GÃ©rer les Tables" style="text;html=1;resizable=0;autosize=1;align=center;verticalAlign=middle;points=[];fillColor=none;strokeColor=none;rounded=0;fontSize=9;" vertex="1" parent="1">
          <mxGeometry x="216" y="481" width="90" height="20" as="geometry" />
        </mxCell>
        <mxCell id="aLRL2a5Y_UuWTGW3Ucmm-66" value="" style="rounded=1;whiteSpace=wrap;html=1;fontSize=4;" vertex="1" parent="1">
          <mxGeometry x="338" y="462" width="120" height="60" as="geometry" />
        </mxCell>
        <mxCell id="aLRL2a5Y_UuWTGW3Ucmm-67" value="GÃ©rer les Tables" style="text;html=1;resizable=0;autosize=1;align=center;verticalAlign=middle;points=[];fillColor=none;strokeColor=none;rounded=0;fontSize=9;" vertex="1" parent="1">
          <mxGeometry x="353" y="482" width="90" height="20" as="geometry" />
        </mxCell>
        <mxCell id="aLRL2a5Y_UuWTGW3Ucmm-68" value="" style="rounded=1;whiteSpace=wrap;html=1;fontSize=4;" vertex="1" parent="1">
          <mxGeometry x="478" y="461" width="120" height="60" as="geometry" />
        </mxCell>
        <mxCell id="aLRL2a5Y_UuWTGW3Ucmm-69" value="GÃ©rer la Todolist" style="text;html=1;resizable=0;autosize=1;align=center;verticalAlign=middle;points=[];fillColor=none;strokeColor=none;rounded=0;fontSize=9;" vertex="1" parent="1">
          <mxGeometry x="493" y="481" width="90" height="20" as="geometry" />
        </mxCell>
        <mxCell id="aLRL2a5Y_UuWTGW3Ucmm-70" value="" style="rounded=1;whiteSpace=wrap;html=1;fontSize=4;" vertex="1" parent="1">
          <mxGeometry x="621" y="461" width="120" height="60" as="geometry" />
        </mxCell>
        <mxCell id="aLRL2a5Y_UuWTGW3Ucmm-71" value="GÃ©rer les DÃ©penses" style="text;html=1;resizable=0;autosize=1;align=center;verticalAlign=middle;points=[];fillColor=none;strokeColor=none;rounded=0;fontSize=9;" vertex="1" parent="1">
          <mxGeometry x="631" y="481" width="100" height="20" as="geometry" />
        </mxCell>
        <mxCell id="aLRL2a5Y_UuWTGW3Ucmm-96" value="" style="rounded=1;whiteSpace=wrap;html=1;fontSize=4;" vertex="1" parent="1">
          <mxGeometry x="381" y="591" width="120" height="60" as="geometry" />
        </mxCell>
        <mxCell id="aLRL2a5Y_UuWTGW3Ucmm-97" value="DÃ©connexion" style="text;html=1;resizable=0;autosize=1;align=center;verticalAlign=middle;points=[];fillColor=none;strokeColor=none;rounded=0;fontSize=9;" vertex="1" parent="1">
          <mxGeometry x="401" y="611" width="80" height="20" as="geometry" />
        </mxCell>
        <mxCell id="aLRL2a5Y_UuWTGW3Ucmm-98" value="" style="endArrow=classic;html=1;rounded=0;fontSize=7;exitX=1;exitY=0.5;exitDx=0;exitDy=0;" edge="1" parent="1" source="aLRL2a5Y_UuWTGW3Ucmm-96">
          <mxGeometry width="50" height="50" relative="1" as="geometry">
            <mxPoint x="430" y="490" as="sourcePoint" />
            <mxPoint x="570" y="620" as="targetPoint" />
          </mxGeometry>
        </mxCell>
        <mxCell id="aLRL2a5Y_UuWTGW3Ucmm-100" value="" style="ellipse;html=1;shape=endState;fillColor=#000000;strokeColor=#ff0000;fontSize=7;" vertex="1" parent="1">
          <mxGeometry x="570" y="605" width="30" height="30" as="geometry" />
        </mxCell>
        <mxCell id="aLRL2a5Y_UuWTGW3Ucmm-103" value="" style="endArrow=none;html=1;rounded=0;fontSize=7;strokeWidth=1;entryX=0.388;entryY=1.005;entryDx=0;entryDy=0;entryPerimeter=0;" edge="1" parent="1" target="aLRL2a5Y_UuWTGW3Ucmm-41">
          <mxGeometry width="50" height="50" relative="1" as="geometry">
            <mxPoint x="120" y="420" as="sourcePoint" />
            <mxPoint x="380" y="480" as="targetPoint" />
          </mxGeometry>
        </mxCell>
        <mxCell id="aLRL2a5Y_UuWTGW3Ucmm-104" value="" style="endArrow=none;html=1;rounded=0;fontSize=7;strokeWidth=5;" edge="1" parent="1">
          <mxGeometry width="50" height="50" relative="1" as="geometry">
            <mxPoint x="120" y="420" as="sourcePoint" />
            <mxPoint x="680" y="420" as="targetPoint" />
          </mxGeometry>
        </mxCell>
      </root>
    </mxGraphModel>
  </diagram>
</mxfile>
